<svg id="Capa_1" data-name="Capa 1" xmlns="http://www.w3.org/2000/svg" viewBox="0 0 1945.1 184.39"><defs><style>.cls-1{fill:#2c3e50;}.cls-2{fill:#fff;}</style></defs><title>Sin título-1</title><path class="cls-1" d="M156.9,49.38v-9H44.62v9c13.73,0,27.08.31,40.41-.14,6.73-.22,9.45,1.25,9.38,8.8-.37,41.62-.28,83.25-.06,124.88,0,6.39-1.3,9.21-8.48,9-18.81-.48-37.63,0-56.45-.33-2.47,0-4.91-2.31-7.36-3.55,2.47-1.51,4.91-4.29,7.4-4.34,18.76-.37,37.54-.2,56.89-.2V56.85H75.79c-11.12,0-22.24.19-33.35-.19-2.11-.07-5.69-2.24-5.92-3.82a58.77,58.77,0,0,1,0-16.17c.23-1.67,3.72-4.11,5.73-4.13q58.59-.36,117.18.06c2,0,4,3.3,6,5.16.29.28,0,1.1.08,1.67,1,17.42,1,17.4-16.18,17.42q-15.83,0-31.64.1a15.3,15.3,0,0,0-2.4.58V183h90.18c-22.38-18.17-20.53-42.77-20.45-66.9.07-21.39,0-42.77,0-64.16,0-19.92,0-19.59,19.88-19.72,7.19,0,8.6,2.94,8.57,9.15-.17,29.93-.07,59.87-.08,89.81,0,31.37,24.88,48.09,54.23,36.33,10.84-4.35,16.53-13.08,17.81-24.21,1.13-9.86,1.15-19.89,1.21-29.84.16-24.24.22-48.47-.06-72.7-.07-6.08,1.32-8.55,8-8.53,20.08.05,20.08-.25,20.08,19.62,0,25.66-.11,51.32,0,77,.11,20.17-2.94,39.13-20.17,54.24h42.73v-9.62c0-43.63.23-87.25-.19-130.87-.08-8.47,2.6-10.55,10.67-10.36,23.94.54,47.9-.14,71.84.48,22.57.59,40,15.33,42.18,35,1.94,17.86-1.12,34.23-17.42,46.28,14.06,11.22,14,27.15,15.25,42.64.14,1.7.3,3.4.42,5.11,1.5,21.44,5,24.14,27.8,20.81v-9c0-43.91.18-87.82-.17-131.72-.06-7.58,2.15-9.76,9.65-9.6,18.89.39,18.9,0,18.9,19.26V182.86h21.23v-9.48c0-43.91.2-87.82-.18-131.73-.06-7.71,2.5-8.86,9.65-9.65,13.69-1.51,21.33,3.61,28.42,15.34,18.42,30.45,38.45,59.92,57.86,89.77,1.34,2.07,2.88,4,5.93,8.24V133.89c0-30.79.18-61.58-.13-92.37-.07-6.82,1.47-9.5,8.91-9.35,18.12.38,18.12,0,18.12,18.1v132.8h53.67c-13.4-10.37-22.46-22.25-28.13-36.89-13.88-35.86-1.94-83,26.94-104.61,24.08-18,68-17.46,91.53,1.3C822,52.39,828.23,65.16,831,80c.85,4.59-.88,6.42-5.24,6.44a59.7,59.7,0,0,0-7.69.09c-9.19,1.25-14.69-.74-17.69-11.32-4.5-15.85-27.09-25.17-46.57-21.31-13.71,2.71-24.37,10-30.66,22.37-11.82,23.24-12.9,47-.65,70.51,9.31,17.84,28.88,26.33,50.19,22.6,17.64-3.08,31.19-17.51,33.84-36.09a40.64,40.64,0,0,0,0-4.64c-13.27,0-26.27-.38-39.23.16-7.27.3-9.89-2.38-9.2-9.31a43.89,43.89,0,0,0,0-7.69c-.45-6,2.21-7.89,8.09-7.81,19.38.28,38.77.34,58.16,0,6.68-.12,8.94,1.91,8.83,8.76-.37,23.07-.14,46.15-.14,70H946v-8.88c0-43.9.14-87.81-.15-131.72,0-7.13,1.34-10.06,9.3-10,25.23.27,25.26-.06,34.16,23.57q16.1,42.74,32.12,85.5c1.08,2.89,2.32,5.71,4.08,10,10.29-27.19,20-52.92,29.75-78.66,4.22-11.18,8.62-22.3,12.44-33.62,1.78-5.28,4.72-7,10.08-6.71a129.63,129.63,0,0,0,18.8,0c7-.57,8.66,2.26,8.62,8.88-.25,44.48-.13,88.95-.13,133.43v8.93c6.66,0,12.9.66,18.87-.33,2.3-.39,4.76-4.23,5.81-7,17.06-45,34-89.93,50.61-135.06,2.48-6.75,5.67-9.09,12.86-8.92,19.88.47,19.88.13,26.5,18.38,15.22,42,30.61,83.94,45.52,126.05,2,5.78,4.84,7.15,10.47,7,14.44-.39,28.89-.13,45.76-.13-19.69-15.56-28.34-34.89-30.59-57-3.15-31.06,1.82-59.89,26.82-81.71,30.91-27,86.17-20.09,106.23,13.32,3.72,6.19,5.59,13.6,7.72,20.62,1.3,4.25-.43,7.29-5.59,7.1a42.2,42.2,0,0,0-6.84,0c-9.42,1.14-14.62-1.3-18.57-11.66-9.36-24.5-48.56-28.38-67.4-7.78-11.24,12.29-15.51,27.34-15.1,43.29a107.62,107.62,0,0,0,5.63,31.66c7.08,20.67,24.62,30.31,47.11,28.39,16.86-1.45,32.48-15.66,34-35.94.16-2.19,1.11-4.32,1.87-7.13,6.65,0,13.18.27,19.68-.07s7.64,2.75,6.73,8.43c-3,18.46-10,34.75-25.72,48h46.67v-9.15c0-43.91.15-87.82-.14-131.73,0-7.12,1.32-10.15,9.3-10,18.81.41,18.82,0,18.82,19V97.4h27.11c12.26,0,24.54-.42,36.78.16,7.07.33,8.71-2.3,8.56-8.83-.38-16.25.09-32.51-.24-48.75-.12-6,1.94-7.74,7.85-7.76,20.25-.08,20.25-.3,20.25,20.23V182.89h20.88v-9.22c0-43.91.16-87.81-.16-131.72,0-7.35,1.71-10.08,9.48-9.75,21.38.91,19-3.63,19,19.07.11,43.61,0,87.22,0,131.53h21.23v-9.25c0-43.91.18-87.82-.16-131.73-.06-7.46,2-9.13,9.46-9.83,13.53-1.27,21.37,3.3,28.52,15.19,18.35,30.49,38.44,59.93,57.84,89.78a16.52,16.52,0,0,0,6,5.95v-8.85c0-31.07.19-62.15-.14-93.23-.08-6.82,2-8.73,8.74-8.64,18.3.26,18.3,0,18.3,17.91V183h19.93v-8.83c0-44.2.13-88.39-.14-132.58,0-6.9,1.69-9.45,9-9.37q47.47.52,95,0c7.14-.08,10,2.21,9.12,9.28a37.29,37.29,0,0,0,0,7.69c.54,6-2.23,7.82-8.06,7.76-25.07-.23-50.15-.1-76-.1V97.4c22.57,0,44.74-.12,66.92.12,3.56,0,10,1.28,10.16,2.64.91,6.64.36,13.53-.34,20.26-.08.72-4.54,1.38-7,1.39-23.08.1-46.16.06-69.92.06v44.64h29.86c14.54,0,29.1.44,43.61-.17,8.3-.34,12.68,1.57,11,10.73-.3,1.62,0,3.35,0,6,3.48.19,6.57-.07,9.43.65,1.85.46,3.34,2.35,5,3.6-1.71,1.5-3.24,3.91-5.17,4.29a25.24,25.24,0,0,1-11,0c-2.18-.58-4.65-3.31-5.3-5.56-.9-3.12-.22-6.69-.22-11.28h-9.64c-22.52,0-45-.19-67.57.12-6.3.08-8.61-1.87-8.46-8.27q.53-22.23,0-44.47c-.15-6.1,2-7.83,7.92-7.75,20.24.28,40.49.11,60.73.11H1900v-9.59h-59.19c-19.16,0-19.16,0-19.16-19.4,0-8.84.46-17.71-.14-26.51-.5-7.36,1.57-9.94,9.38-9.74,21.65.54,43.33.18,65,.18h9.66V40.44H1810c-.14,3.15-.41,6.42-.41,9.7q0,65,0,130c0,11.62,0,11.62-11.16,11.64-24.63.05-24.63.05-24.63-24.34v-127h-11.52v9.39c0,34.22.07,68.43-.1,102.64,0,3.37-1.56,6.74-2.4,10.1-2.89-2.18-6.67-3.77-8.54-6.62C1727.89,120.48,1704.57,85,1682,49.09c-5.31-8.45-11.07-11.17-21.31-8.19v8.69c0,44.19-.15,88.39.15,132.58.05,7.46-2.13,10.41-9.72,9.72a92.7,92.7,0,0,0-17.94,0c-8.29.88-10-2.73-9.9-10.32.31-43.91.15-87.82.15-131.72V40.26h-12.35v9.82c0,43.91-.18,87.82.17,131.72.06,8-2.32,10.91-10.23,10.09a77.91,77.91,0,0,0-16.23,0c-8.3.88-10.86-2.31-10.8-10.57.33-43.62.16-87.25.16-130.87v-10h-12.09c0,17.18,0,34.2,0,51.22,0,14.88.91,13.09-13.51,13.13-21.38.06-42.78-.28-64.15.18-7.61.16-10.52-1.66-10.24-9.87.63-17.92.2-35.87.2-54.57h-12.11v9c0,43.91-.17,87.82.14,131.73.06,8.15-2.35,10.93-10.73,10.69-19.94-.57-39.91-.05-59.86-.35-2.5,0-5-2.32-7.43-3.56,1.8-1.79,3.28-4.31,5.44-5.27,20-8.9,31.42-24.19,34.71-47.76-5.36-.81-10.59-3.59-12.81,5.13-6,23.42-20.88,36.82-41.31,38-26.05,1.44-45.82-10.1-54.28-32.81-8.22-22.1-8.67-44.69-.23-66.86,11.88-31.2,51.35-43.47,78.91-24.36a38.75,38.75,0,0,1,13.24,16.14c3.27,8,7.77,8.51,14.49,6.59-4.61-23.24-25.43-39.49-52.68-40.44-41.36-1.46-66.36,23.7-71.32,64.84-2.08,17.16-.15,34.11,7.23,50.13a59.41,59.41,0,0,0,31.58,30.89c2.55,1.1,4.25,4.18,6.34,6.34-2.9,1.07-5.79,3-8.7,3.07-21.39.27-42.78-.19-64.15.34-7.11.17-9.82-2.57-12-8.83-15.91-44.77-32.22-89.39-48.27-134.11-2-5.62-3.6-9.83-11.4-9.59-7.19.22-10.25,2.49-12.69,9.09-16.57,44.84-33.77,89.44-50.28,134.31-2.64,7.18-6.14,9.92-13.58,9.06a76.47,76.47,0,0,0-16.22,0c-7.82.77-9.66-2.74-9.62-9.94.25-43.91.12-87.82.12-131.73V39.8c-4.32,0-8,.48-11.51-.1-7.47-1.24-10.24,2.56-12.61,9-13.46,36.58-27.34,73-41.08,109.5a16,16,0,0,1-1.6,3.94,65.48,65.48,0,0,1-4.76,5.26c-1.56-1.77-3.79-3.28-4.59-5.35-9.08-23.62-18-47.33-26.86-71-5.2-13.85-10.76-27.58-15.35-41.63-2.39-7.31-5.72-11.18-13.83-9.68-3,.55-6.15.09-10.06.09-.17,3.69-.42,6.71-.42,9.73q0,65.43,0,130.87c0,11.37,0,11.38-11.43,11.39-36.21,0-72.43-.15-108.63.13-7,.05-9.5-2.06-9.38-9.25.36-23.33.13-46.66.13-70.54h-58V121c12.5,0,25,.48,37.33-.17,8.21-.44,10.78,2.1,10.5,10.42-1,30.44-30.28,52.48-62.07,46.22-19.06-3.75-32.77-14.3-39.76-32.48-11.14-29-10-57.39,9.85-82.28,19.28-24.17,63.37-23.24,80.7.49a39.81,39.81,0,0,1,4.18,7.39c3.8,8.61,3.73,8.64,13.63,7.56C820,59.63,801.56,41.84,779.51,38c-47.45-8.28-82.4,19.8-85.13,68.12C692.82,133.69,700,157.5,723,174.6c4.72,3.52,10.59,5.45,15.63,8.59,1.74,1.09,2.56,3.65,3.81,5.53-1.78,1-3.55,2.91-5.34,2.93-24.23.19-48.47,0-72.7.19-6.78,0-6.07-4.43-6.07-8.73V78.75c0-10,0-20,0-29.94,0-9.58,0-9.58-11.51-8.2v9c0,34.79.08,69.57-.13,104.36,0,2.92-1.92,5.82-2.95,8.74-2.5-1.9-5.75-3.31-7.37-5.78C613,121.16,589.48,85.45,566.71,49.32c-5.2-8.25-10.73-11.81-21.43-8.26v9.13c0,43.62-.23,87.25.2,130.87.09,8.86-2.69,11.77-11.22,10.84a91.19,91.19,0,0,0-17.09,0c-7,.58-9.34-2-9.3-9.18.3-44.19.15-88.38.15-132.58V40.36H495.67V179c0,12.81,0,12.81-13.21,12.81-4.28,0-8.63-.5-12.82.1-7.95,1.14-11.95-3.09-13.55-9.79-2-8.26-3.23-16.7-4.47-25.11-.87-5.9-.94-11.92-1.83-17.81-1.46-9.71-6.14-16.93-16.12-20.06-2.09-.66-3.7-2.86-5.53-4.35,1.64-1.68,3-4,5-5,15.85-7.49,23.31-20.55,21.28-37.89C452.45,55.34,442,42.74,424.68,41.7c-26-1.57-52.22-.41-79.55-.41v8.34c0,44.19-.16,88.39.14,132.58.05,7.47-2.12,9.93-9.69,9.74-18.52-.49-37.07,0-55.59-.3-2.68,0-5.32-1.94-8-3,1.89-2,3.4-4.81,5.71-5.82,16-7,27-19,27.61-36.12,1.32-35.23.4-70.54.4-106.37H294.4v9c-.07,29.08.22,58.17-.31,87.24-.51,28-15.89,41.9-44.91,41.63-27.34-.24-43.64-15.8-43.9-42.56-.28-28.51-.06-57-.06-85.53V40.35H193.84a28,28,0,0,0-.92,5.22c.05,31.08,0,62.15.36,93.22.25,21.21,10,36.29,30.16,44.2,2.18.86,3.72,3.36,5.55,5.1-2.5,1.23-5,3.52-7.52,3.54-35.61.23-71.23,0-106.84.27-6.52,0-8.39-2.6-8.38-8.64q.21-62.86,0-125.74c0-6.32,2.28-8.43,8.56-8.26C128.7,49.63,142.62,49.38,156.9,49.38Z"/><rect class="cls-2" y="182.63" width="2009.54" height="15.53"/></svg>